<?xml version="1.0" encoding="UTF-8"?>
<svg id="Layer_1" data-name="Layer 1" xmlns="http://www.w3.org/2000/svg" xmlns:xlink="http://www.w3.org/1999/xlink" viewBox="0 0 173.91 174">
  <defs>
    <style>
      .cls-1 {
        clip-path: url(#clippath);
      }

      .cls-2 {
        fill: none;
      }

      .cls-2, .cls-3, .cls-4, .cls-5, .cls-6, .cls-7, .cls-8, .cls-9, .cls-10, .cls-11, .cls-12, .cls-13, .cls-14 {
        stroke-width: 0px;
      }

      .cls-15 {
        clip-path: url(#clippath-1);
      }

      .cls-3 {
        fill: #474748;
      }

      .cls-3, .cls-4, .cls-5, .cls-6, .cls-7, .cls-8, .cls-9 {
        fill-rule: evenodd;
      }

      .cls-4 {
        fill: #5f5659;
      }

      .cls-5, .cls-11 {
        fill: #df5e6e;
      }

      .cls-6 {
        fill: #f5be92;
      }

      .cls-7, .cls-14 {
        fill: #fff;
      }

      .cls-8 {
        fill: #ffdec4;
      }

      .cls-9 {
        fill: #f5704d;
      }

      .cls-10 {
        fill: #f4a57a;
      }

      .cls-12 {
        fill: #303030;
      }

      .cls-13 {
        fill: #84a8c5;
      }
    </style>
    <clipPath id="clippath">
      <ellipse class="cls-2" cx="91.56" cy="92.03" rx="17.81" ry="17.8" transform="translate(-.6 183.46) rotate(-89.92)"/>
    </clipPath>
    <clipPath id="clippath-1">
      <ellipse class="cls-2" cx="86.96" cy="87" rx="87" ry="86.96" transform="translate(-.27 173.73) rotate(-89.85)"/>
    </clipPath>
  </defs>
  <ellipse class="cls-13" cx="91.56" cy="92.03" rx="17.81" ry="17.8" transform="translate(-.6 183.46) rotate(-89.92)"/>
  <g class="cls-1">
    <g>
      <path class="cls-6" d="M84.75,87.6c.49-.16,1.12.4,1.4,1.25.28.85.11,1.67-.38,1.84-.49.16-1.12-.4-1.4-1.25-.28-.85-.11-1.67.38-1.84Z"/>
      <path class="cls-6" d="M99.16,87.6c-.49-.16-1.12.4-1.4,1.25-.28.85-.11,1.67.38,1.84.49.16,1.12-.4,1.4-1.25.28-.85.11-1.67-.38-1.84Z"/>
      <path class="cls-9" d="M96.64,80.87c1.38.22,2.14,1.16,2.47,2.45.85,3.34-.93,10.58-7.08,10.66-3.17.04-5.46-.76-6.29-3.33-.83-2.57-1.17-6.71.64-9.03,2.28-2.92,7.06-2.95,10.27-.75Z"/>
      <path class="cls-7" d="M89.36,97.89c-5.76,2.53-7.49,3.87-8.17,4.48-1.05.93-1.67,4.52-2.29,7.47h26.07c-.62-2.95-1.17-6.54-2.22-7.47-.68-.6-2.35-1.92-8.11-4.44l-5.27-.03Z"/>
      <path class="cls-4" d="M91.97,109.84h6.57c-.03-3.16.03-6.71,2.61-8.66-.95-.59-2.36-1.37-4.53-2.38.89,2.65-2.32,4.26-4.84,4.25-2.52,0-5.31-1.61-4.43-4.25-2.17,1.01-3.59,1.79-4.53,2.38,2.58,1.94,2.64,5.5,2.61,8.66h6.54Z"/>
      <path class="cls-6" d="M89.17,92.85v6.83c1.54,1.82,4.06,1.88,5.59,0v-6.83c0-3.45-5.59-3.45-5.59,0Z"/>
      <path class="cls-6" d="M91.97,81.39c-9.39,0-6.01,12.23-5.4,13.13.68,1,3.88,2.75,5.4,2.75s4.72-1.97,5.4-2.97c.61-.9,3.99-12.91-5.4-12.91Z"/>
      <g>
        <path class="cls-9" d="M91.48,84.15c-.05-.35,0-.67.1-.82.09-.15.19-.18.18-.19l-.94-.71s-.03.07-.09.18c-.03.05-.05.12-.07.2l-.7-.15s.02.16-.08.41c-.08.26-.38.62-.69,1.04-.15.21-.29.44-.39.67-.05.11-.08.23-.11.34-.03.11-.03.22-.05.31,0,.19,0,.35.02.46.01.11.02.17.02.17,0,0,.01-.06.03-.17.01-.11.06-.25.11-.42.13-.34.41-.68.79-.95.34-.25.75-.51,1.03-.84.06.23.15.45.26.65.21.37.46.67.65.89.19.22.33.36.33.36,0,0-.07-.18-.17-.45-.1-.27-.21-.64-.26-.99Z"/>
        <path class="cls-9" d="M98.87,86.95c.03-.06.06-.11.08-.16.05-.1.09-.19.13-.26.07-.14.11-.22.11-.22l-1.08-.48s-.03.1-.08.28c-.03.09-.06.19-.09.31-.02.06-.04.12-.06.19-.01.07-.03.14-.04.22-.14.6-.24,1.4-.29,2.18-.04.79-.05,1.57-.05,2.16,0,.58,0,.97,0,.97,0,0,.08-.38.19-.96.1-.5.23-1.14.38-1.79.05.3.11.59.18.81.04.16.11.28.14.37.04.09.06.14.06.14,0,0,0-.05,0-.15,0-.09-.03-.22-.01-.38,0-.32.07-.73.17-1.13.1-.41.22-.82.29-1.15.04-.16.06-.31.08-.4.02-.1.03-.16.03-.16h-.3c.03-.07.06-.14.09-.2.03-.06.05-.13.08-.18Z"/>
        <path class="cls-9" d="M98.38,84.98c.04-.1.07-.2.09-.29.03-.09.05-.17.05-.24.02-.14.04-.22.04-.22h-1.18s0,.05.02.14c0,.04.01.1.01.17,0,.07,0,.14,0,.23-.01.34-.13.83-.27,1.33-.14.5-.27,1.03-.29,1.44,0,.1-.01.19,0,.27,0,.08,0,.15.01.21.02.11.02.18.02.18,0,0,0-.06.03-.18,0-.06.02-.12.04-.2.02-.08.05-.16.08-.25.13-.36.38-.8.65-1.24.27-.44.55-.92.69-1.34Z"/>
        <path class="cls-9" d="M87.27,88.34s-.04-.08-.07-.13c-.02-.05-.04-.1-.06-.15-.04-.1-.08-.22-.12-.34-.05-.12-.07-.25-.11-.38-.08-.26-.13-.56-.19-.85-.09-.59-.16-1.17-.19-1.62-.03-.45-.06-.75-.06-.75l-1.15.23s.1.29.24.72c.07.21.15.46.25.72l-.76.15s.1.38.26.94c.17.56.33,1.34.52,2.11.34,1.55.69,3.11.69,3.11,0,0-.05-1.59-.1-3.18-.04-.69-.06-1.38-.1-1.94.08.17.16.34.25.49.07.13.13.25.21.36.07.11.15.21.21.31.03.05.06.09.09.14.03.04.07.08.1.11.06.07.11.13.16.18.09.1.14.16.14.16,0,0-.03-.07-.09-.19-.03-.06-.07-.13-.11-.21Z"/>
      </g>
      <path class="cls-7" d="M98.42,89.58c-.23-3.14-1.72-6.19-6.46-6.19s-6.23,3.12-6.46,6.32c-.25-3.76.72-8.31,6.46-8.31s6.71,4.49,6.46,8.19Z"/>
      <g>
        <path class="cls-9" d="M99.34,81.77s-.14-.15-.4-.35c-.25-.19-.61-.43-1.01-.61-.2-.09-.42-.16-.64-.19-.22-.03-.45-.02-.65.07-.05.02-.1.05-.14.07-.02-.2-.03-.41-.07-.63-.07-.38-.21-.75-.36-.99-.07-.12-.16-.21-.2-.28-.05-.06-.08-.1-.08-.1,0,0,.02.04.06.11.03.07.1.17.14.3.1.26.16.62.15.97-.02.36-.07.72-.11,1-.03.28-.06.47-.06.47h.59s0-.11-.02-.28l.13.06s.02-.16.19-.27c.09-.06.23-.1.4-.11.17,0,.37.02.57.07.39.09.78.26,1.06.41.28.14.45.27.45.27Z"/>
        <path class="cls-9" d="M100.35,87.9s-.05-.05-.08-.08c-.02-.03-.05-.07-.08-.1-.06-.07-.12-.16-.17-.26-.12-.19-.21-.44-.3-.71-.08-.27-.14-.57-.2-.87-.06-.3-.12-.61-.2-.89-.09-.29-.18-.56-.31-.78-.03-.06-.06-.11-.09-.16-.03-.05-.07-.09-.09-.14-.06-.09-.11-.16-.17-.21-.1-.11-.16-.17-.16-.17l-.38.45s.05.04.14.12c.05.04.1.09.15.15.03.03.06.06.09.1.03.04.06.08.09.12.13.17.24.4.35.65.11.26.2.55.3.84.1.29.2.59.31.86.12.27.25.51.4.7.07.1.14.18.21.24.03.03.06.07.09.1.03.03.06.05.09.07.1.09.16.13.16.13,0,0-.05-.06-.15-.15Z"/>
        <path class="cls-9" d="M85.33,83.72c0,.07.02.17,0,.3,0,.06-.02.13-.03.21-.02.07-.04.15-.06.23-.03.16-.1.33-.15.51-.13.34-.27.69-.38.95-.1.26-.17.43-.17.43,0,0,.1-.16.26-.39.16-.23.37-.54.56-.86.09-.17.2-.33.27-.5.04-.08.08-.16.11-.24.03-.08.05-.16.08-.23.06-.14.07-.28.09-.37.02-.09.02-.14.02-.14h-.59s0,.04,0,.11Z"/>
        <path class="cls-9" d="M86.76,81.56c-.08.04-.2.09-.33.14-.13.05-.29.1-.43.08-.16-.01-.33-.07-.46-.19-.14-.12-.23-.29-.26-.46-.03-.17,0-.35.08-.48.15-.27.36-.37.35-.37,0,0-.21.06-.43.32-.1.13-.19.32-.19.55,0,.22.08.46.23.65.15.19.38.33.6.39.25.07.46.03.63,0,.17-.03.31-.07.4-.09.09-.02.14-.03.14-.03l-.19-.56s-.05.02-.14.06Z"/>
      </g>
      <path class="cls-12" d="M84.84,89.71c-1.03,3.54.82,7.19,2.76,10.05,1.09,1.6,2.25,3.21,2.96,5.03.67,1.71.7,3.51.76,5.32.02.64,1.02.64,1,0-.06-1.68-.06-3.41-.6-5.02-.6-1.81-1.63-3.42-2.69-4.99-1.95-2.89-4.29-6.46-3.23-10.12.18-.62-.78-.88-.96-.27h0Z"/>
      <path class="cls-12" d="M98.26,89.47c.22,1.8.08,3.39-.56,5.09-.6,1.59-1.41,3.08-2.28,4.53s-1.81,2.67-2.8,3.96c-.69.9-1.69,2.02-1.61,3.24.04.64,1.04.64,1,0s.39-1.23.73-1.72c.4-.58.84-1.13,1.28-1.69,1.01-1.29,1.9-2.63,2.72-4.05s1.51-2.81,2.05-4.32c.59-1.67.69-3.29.47-5.04-.08-.63-1.08-.64-1,0h0Z"/>
    </g>
  </g>
  <ellipse class="cls-10" cx="86.96" cy="87" rx="87" ry="86.96" transform="translate(-.27 173.73) rotate(-89.85)"/>
  <g class="cls-15">
    <g>
      <path class="cls-3" d="M134.98,141.69c-.51-19.08-5.47-106.17-49.25-107.25-40.6,1.25-47.96,88.32-46.56,108.49,8.53,1.02,27.34,6.53,46.4,6.4,20.13-.14,40.54-5.98,49.41-7.65Z"/>
      <path class="cls-5" d="M98.89,121.21c-.26.41-26.09.82-26.37,1.23-8.11,11.57-25.63,16.64-39.57,19.75-13.87,3.1-14.4,20.71-14.42,32.44h135.18c-.02-11.73-.28-29.28-14.42-32.44-14.15-3.16-32.7-8.89-40.39-20.99Z"/>
      <path class="cls-8" d="M72.57,96.5v33.18c6.79,13.88,18.97,14.24,27.09,0v-33.18c0-17.91-27.09-17.91-27.09,0Z"/>
      <path class="cls-8" d="M123.54,81.01c-2.84-1.22-6.84,1.77-8.95,6.67-2.11,4.91-1.52,9.87,1.32,11.09,2.84,1.22,6.84-1.77,8.95-6.67,2.11-4.91,1.52-9.87-1.32-11.09Z"/>
      <path class="cls-8" d="M49.91,81.01c2.84-1.22,6.84,1.77,8.95,6.67,2.11,4.91,1.52,9.87-1.32,11.09-2.84,1.22-6.84-1.77-8.95-6.67-2.11-4.91-1.52-9.87,1.32-11.09Z"/>
      <path class="cls-8" d="M86.11,119.45c-8.82,0-27.45-13.86-33.21-33.72-5.81-20.05,5.14-48.81,33.21-48.81s39.02,28.76,33.2,48.81c-5.76,19.86-24.39,33.72-33.2,33.72Z"/>
      <path class="cls-3" d="M83.86,52.01c3.81,17.75,21.9,27.67,37.55,24.28-.46-19.88-12.16-40.93-35.3-40.93-24.83,0-36.48,24.24-35.21,45.25,15.89,2.19,20.25-7.14,32.96-28.6Z"/>
      <g>
        <path class="cls-3" d="M60.91,93.82c-.07-.26-.14-.54-.22-.82-.1-.27-.21-.55-.32-.84-.21-.6-.52-1.16-.81-1.78-.62-1.18-1.37-2.41-2.05-3.56-.66-1.16-1.3-2.3-1.6-3.28-.29-.99-.39-1.78-.22-2.33.25-1.1.86-1.74.8-1.74l-6.71-2.57s-.1.49-.23,1.33c-.03.21-.06.44-.1.69-.02.26,0,.56,0,.86,0,.62.02,1.3.21,2.03.25,1.49,1.07,2.96,1.99,4.19.94,1.25,2.05,2.2,3.1,3.14,1.07.92,2.08,1.76,2.98,2.61.41.43.87.84,1.2,1.28.18.22.35.43.52.63.14.22.28.43.42.63.3.4.47.81.64,1.18.09.19.17.36.24.52.05.17.09.32.13.46.16.58.25.91.25.91,0,0,.02-.34.06-.95,0-.16.02-.33.03-.51-.02-.18-.04-.38-.06-.6-.04-.43-.09-.93-.25-1.45Z"/>
        <path class="cls-3" d="M120.97,76.43c-.24-.77-.55-1.38-.8-1.96-.27-.53-.51-1.01-.71-1.37-.41-.72-.64-1.12-.64-1.12l-5.71,4.37s.27.27.74.74c.22.23.48.52.78.84.25.32.59.68.85,1.08.57.8,1.07,1.72,1.29,2.92.22,1.21.2,2.62-.19,4.07-.77,2.91-2.74,5.94-3.57,8.43-.46,1.24-.64,2.32-.76,3.06-.06.75-.1,1.17-.1,1.17,0,0,.14-.4.4-1.09.3-.67.74-1.62,1.46-2.63.71-1.02,1.65-2.11,2.7-3.31,1.05-1.21,2.21-2.56,3.17-4.21.97-1.64,1.61-3.61,1.8-5.56.21-1.97-.18-3.95-.71-5.42Z"/>
        <path class="cls-3" d="M92.97,65.35c-1.17-1.53-2.21-3.14-2.96-4.66-.73-1.52-1.21-2.95-1.29-4.04-.11-1.1.09-1.8.26-2.21.17-.42.35-.6.32-.61l-3.09-1.25s.07-.11.11-.16c.49-.62,1.01-.92,1.4-1.11.17-.11.36-.15.46-.2.11-.04.16-.07.16-.07l-3.75-6.13s-.12.1-.34.28c-.22.19-.55.43-.92.83-.76.74-1.79,2-2.42,3.67-.65,1.67-.9,3.65-.69,5.54.17,1.91.74,3.76,1.46,5.46,1.47,3.41,3.64,6.28,5.52,8.13.94.93,1.8,1.61,2.43,2.03.31.21.57.37.75.46.17.1.27.15.27.15,0,0-.08-.08-.22-.22-.15-.14-.35-.35-.59-.63-.49-.56-1.12-1.41-1.75-2.49-.75-1.26-1.48-2.87-2.05-4.62,1.29,1.56,2.8,3.01,4.36,4.31,3.23,2.69,6.74,4.83,9.45,6.25,2.71,1.43,4.63,2.06,4.63,2.06,0,0-1.73-1.05-4.01-3-2.28-1.93-5.14-4.73-7.49-7.81Z"/>
      </g>
      <path class="cls-11" d="M56.54,61.4s.13-.23.38-.65c.27-.41.58-1.05,1.16-1.77.28-.37.58-.79.94-1.23.36-.43.77-.87,1.2-1.36.45-.47.96-.93,1.48-1.45.54-.49,1.15-.97,1.77-1.48,1.29-.96,2.75-1.96,4.4-2.81,1.64-.89,3.46-1.64,5.39-2.29,1.93-.65,3.99-1.12,6.09-1.46,2.11-.33,4.28-.46,6.44-.48,2.16.04,4.32.2,6.42.54,2.1.35,4.13.83,6.05,1.44,1.92.62,3.73,1.33,5.38,2.16,1.66.79,3.15,1.71,4.48,2.58.65.46,1.27.91,1.85,1.35.56.47,1.08.91,1.58,1.32.95.88,1.74,1.67,2.34,2.37.64.66,1.04,1.27,1.35,1.65.29.39.44.6.44.6,0,0-.23-.12-.66-.35-.43-.24-1.04-.58-1.84-.99-.78-.43-1.77-.87-2.86-1.41-.56-.24-1.15-.5-1.78-.78-.63-.25-1.29-.51-1.98-.79-1.39-.51-2.89-1.04-4.51-1.49-1.6-.49-3.32-.88-5.09-1.25-1.78-.36-3.63-.61-5.5-.84-1.88-.17-3.8-.31-5.71-.31-1.91-.01-3.82.08-5.7.25-1.87.21-3.7.46-5.46.83-1.75.38-3.44.8-5.01,1.34-1.59.49-3.04,1.1-4.39,1.68-.66.32-1.3.62-1.91.91-.6.32-1.16.62-1.7.91-.52.31-1.01.61-1.47.87-.46.27-.85.55-1.23.78-.75.47-1.33.92-1.73,1.19-.4.28-.62.42-.62.42Z"/>
      <g>
        <path class="cls-14" d="M52.31,95.32c0,7.13,0,14.33,1.42,21.35,1.31,6.43,3.97,12.34,7.89,17.58,6.63,8.88,15.38,16.03,21.46,25.34,3.39,5.19,5.66,10.97,5.72,17.22.01,1.29,2.01,1.29,2,0-.11-11.25-6.86-20.4-14.08-28.42-3.77-4.19-7.74-8.2-11.33-12.55-4.04-4.89-7.24-10.24-8.95-16.39-2.18-7.85-2.15-16.07-2.15-24.14,0-1.29-2-1.29-2,0h0Z"/>
        <path class="cls-14" d="M120.06,92.57c-.05,11.73-4.27,23.12-10.05,33.18-2.53,4.41-5.4,8.64-8.58,12.62s-6.47,7.8-9.32,11.99c-3,4.41-5.52,9.31-5.93,14.71-.1,1.28,1.9,1.28,2,0,.37-4.9,2.75-9.37,5.44-13.38,2.87-4.27,6.25-8.17,9.45-12.19,6.69-8.41,12.22-17.9,15.66-28.1,2.05-6.06,3.29-12.42,3.32-18.83,0-1.29-1.99-1.29-2,0h0Z"/>
      </g>
    </g>
  </g>
</svg>