<?xml version="1.0" encoding="UTF-8"?>
<svg id="Layer_1" data-name="Layer 1" xmlns="http://www.w3.org/2000/svg" xmlns:xlink="http://www.w3.org/1999/xlink" viewBox="0 0 173.91 174">
  <defs>
    <style>
      .cls-1 {
        clip-path: url(#clippath);
      }

      .cls-2 {
        fill: none;
      }

      .cls-2, .cls-3, .cls-4, .cls-5, .cls-6, .cls-7, .cls-8 {
        stroke-width: 0px;
      }

      .cls-3 {
        fill: #5f5659;
      }

      .cls-3, .cls-4, .cls-5, .cls-6 {
        fill-rule: evenodd;
      }

      .cls-4 {
        fill: #f5be92;
      }

      .cls-5 {
        fill: #fff;
      }

      .cls-6 {
        fill: #f5704d;
      }

      .cls-7 {
        fill: #303030;
      }

      .cls-8 {
        fill: #84a8c5;
      }
    </style>
    <clipPath id="clippath">
      <ellipse class="cls-2" cx="86.96" cy="87" rx="87" ry="86.96" transform="translate(-.17 173.83) rotate(-89.92)"/>
    </clipPath>
  </defs>
  <ellipse class="cls-8" cx="86.96" cy="87" rx="87" ry="86.96" transform="translate(-.17 173.83) rotate(-89.92)"/>
  <g class="cls-1">
    <g>
      <path class="cls-4" d="M53.69,65.37c2.41-.79,5.47,1.94,6.84,6.1,1.37,4.16.53,8.18-1.88,8.97-2.41.79-5.47-1.94-6.84-6.1-1.37-4.16-.53-8.18,1.88-8.97Z"/>
      <path class="cls-4" d="M124.06,65.37c-2.41-.79-5.47,1.94-6.84,6.1-1.37,4.16-.53,8.18,1.87,8.97,2.41.79,5.47-1.94,6.84-6.1,1.37-4.16.53-8.18-1.88-8.97Z"/>
      <path class="cls-6" d="M111.77,32.49c6.73,1.07,10.46,5.69,12.05,11.95,4.15,16.31-4.54,51.67-34.61,52.09-15.51.22-26.68-3.73-30.75-16.28-4.07-12.55-5.74-32.78,3.11-44.11,11.13-14.26,34.49-14.4,50.2-3.66Z"/>
      <path class="cls-5" d="M76.2,115.62c-28.14,12.34-36.58,18.91-39.92,21.87-5.14,4.55-8.16,22.11-11.2,36.51h127.35c-3.03-14.4-5.7-31.96-10.85-36.51-3.34-2.95-11.47-9.36-39.61-21.7l-25.77-.17Z"/>
      <path class="cls-3" d="M88.93,174h32.11c-.13-15.45.13-32.8,12.75-42.3-4.62-2.89-11.55-6.71-22.14-11.65,4.33,12.92-11.33,20.8-23.62,20.78-12.3.02-25.95-7.86-21.62-20.78-10.59,4.94-17.52,8.76-22.14,11.65,12.61,9.5,12.88,26.85,12.75,42.3h31.93Z"/>
      <path class="cls-4" d="M75.27,91.03v33.37c7.51,8.88,19.81,9.2,27.33,0v-33.37c0-16.84-27.33-16.84-27.33,0Z"/>
      <path class="cls-4" d="M88.93,35.02c-45.86,0-29.37,59.75-26.37,64.17,3.3,4.86,18.96,13.42,26.37,13.42s23.07-9.64,26.37-14.51c2.99-4.41,19.49-63.08-26.37-63.08Z"/>
      <g>
        <path class="cls-6" d="M86.54,48.52c-.24-1.73,0-3.3.5-3.99.46-.72.92-.89.89-.92l-4.6-3.45s-.17.32-.42.88c-.13.26-.24.59-.34.98l-3.43-.72s.09.76-.37,2.02c-.4,1.29-1.85,3.05-3.35,5.09-.73,1.02-1.44,2.13-1.88,3.27-.26.55-.39,1.13-.54,1.66-.12.53-.16,1.05-.23,1.51-.02.94-.01,1.7.09,2.22.07.52.11.82.11.82,0,0,.05-.29.14-.81.06-.51.27-1.23.54-2.04.62-1.64,2-3.33,3.85-4.64,1.65-1.24,3.65-2.49,5.05-4.11.28,1.12.74,2.22,1.28,3.17,1.01,1.79,2.25,3.27,3.2,4.34.95,1.07,1.61,1.75,1.61,1.75,0,0-.36-.88-.83-2.2-.47-1.32-1.03-3.11-1.26-4.83Z"/>
        <path class="cls-6" d="M122.66,62.17c.14-.27.27-.53.4-.77.25-.48.46-.91.64-1.25.35-.69.55-1.08.55-1.08l-5.25-2.34s-.14.49-.39,1.34c-.12.43-.27.94-.45,1.53-.09.29-.18.61-.27.94-.07.33-.14.69-.22,1.05-.69,2.92-1.15,6.82-1.43,10.67-.21,3.85-.26,7.67-.26,10.53-.01,2.86-.02,4.76-.02,4.76,0,0,.37-1.87.92-4.67.47-2.44,1.11-5.57,1.86-8.74.23,1.48.53,2.87.9,3.95.2.77.55,1.38.7,1.8.18.42.29.66.29.66,0,0-.02-.26-.05-.72,0-.46-.13-1.09-.05-1.87.02-1.54.37-3.55.83-5.54.49-2,1.06-4.01,1.43-5.62.2-.78.31-1.5.41-1.98.09-.49.15-.77.15-.77h-1.46c.14-.34.28-.67.42-.99.13-.31.25-.61.37-.9Z"/>
        <path class="cls-6" d="M120.27,52.55c.19-.5.34-.99.45-1.44.12-.44.22-.83.27-1.17.11-.67.17-1.06.17-1.06h-5.75s.03.25.09.68c.04.22.05.49.05.81.02.32.02.69-.02,1.1-.07,1.65-.62,4.04-1.3,6.5-.67,2.46-1.33,5.04-1.43,7.01-.03.49-.06.94-.03,1.34.01.4.01.74.07,1.02.08.55.12.87.12.87,0,0,.05-.31.13-.87.03-.27.12-.6.21-.97.08-.37.22-.78.38-1.21.61-1.76,1.87-3.89,3.2-6.06,1.33-2.17,2.67-4.49,3.39-6.56Z"/>
        <path class="cls-6" d="M65.97,68.95c-.1-.2-.21-.41-.32-.63-.09-.23-.18-.48-.27-.74-.19-.51-.39-1.06-.61-1.65-.23-.57-.35-1.23-.54-1.88-.39-1.29-.63-2.73-.91-4.14-.46-2.86-.76-5.72-.92-7.92-.17-2.2-.28-3.67-.28-3.67l-5.64,1.13s.47,1.41,1.17,3.53c.34,1.03.75,2.23,1.23,3.52l-3.74.75s.51,1.85,1.26,4.61c.82,2.76,1.63,6.54,2.54,10.3,1.67,7.59,3.35,15.19,3.35,15.19,0,0-.25-7.78-.5-15.55-.17-3.36-.28-6.72-.5-9.47.39.84.79,1.66,1.24,2.41.36.61.64,1.23,1.02,1.76.36.54.71,1.04,1.03,1.51.16.23.31.45.45.66.17.19.33.38.48.55.3.34.56.64.77.89.42.49.67.77.67.77,0,0-.17-.33-.46-.91-.14-.29-.32-.63-.52-1.03Z"/>
      </g>
      <path class="cls-5" d="M120.48,75.01c-1.14-15.35-8.42-30.26-31.54-30.26s-30.42,15.24-31.54,30.89c-1.22-18.35,3.54-40.62,31.54-40.62s32.77,21.93,31.54,39.99Z"/>
      <g>
        <path class="cls-6" d="M124.96,36.89s-.71-.75-1.95-1.7c-1.24-.95-2.98-2.11-4.95-2.97-.98-.43-2.03-.77-3.11-.92-1.07-.15-2.2-.08-3.16.33-.26.1-.49.23-.7.36-.07-.97-.17-2.02-.33-3.08-.33-1.88-1-3.67-1.75-4.85-.34-.61-.77-1.02-1-1.34-.25-.31-.39-.49-.39-.49,0,0,.1.2.29.56.16.37.49.83.69,1.47.48,1.26.76,3.01.72,4.76-.08,1.76-.34,3.53-.53,4.9-.17,1.39-.28,2.31-.28,2.31h2.87s-.04-.53-.11-1.38l.65.29s.1-.77.93-1.33c.42-.3,1.11-.51,1.96-.54.85-.03,1.81.09,2.77.33,1.92.46,3.81,1.28,5.17,1.98,1.36.7,2.19,1.32,2.19,1.32Z"/>
        <path class="cls-6" d="M129.91,66.82c-.11-.12-.24-.25-.37-.39-.12-.16-.24-.33-.38-.51-.27-.36-.58-.77-.83-1.26-.58-.94-1.03-2.16-1.45-3.47-.39-1.33-.71-2.77-1-4.24-.3-1.47-.6-2.96-1-4.36-.42-1.4-.88-2.72-1.49-3.79-.15-.27-.28-.53-.43-.77-.16-.23-.32-.45-.46-.66-.28-.42-.55-.78-.82-1.04-.51-.54-.8-.85-.8-.85l-1.85,2.2s.25.21.68.58c.23.17.48.42.74.73.14.15.28.31.44.48.14.18.28.39.42.59.62.82,1.17,1.93,1.71,3.17.52,1.25.99,2.67,1.46,4.09.47,1.43.98,2.87,1.54,4.19.6,1.3,1.21,2.5,1.93,3.4.32.48.68.86,1,1.19.16.17.3.33.44.47.15.13.3.24.42.35.51.42.8.65.8.65,0,0-.26-.27-.72-.74Z"/>
        <path class="cls-6" d="M56.53,46.42c0,.34.07.83-.04,1.45-.04.31-.08.65-.13,1.01-.09.36-.18.74-.27,1.13-.16.8-.49,1.63-.76,2.48-.61,1.68-1.33,3.36-1.85,4.62-.51,1.27-.85,2.11-.85,2.11,0,0,.5-.76,1.25-1.9.76-1.13,1.79-2.63,2.75-4.21.45-.81.95-1.6,1.31-2.42.19-.41.37-.8.54-1.18.14-.4.26-.78.38-1.13.27-.69.33-1.35.42-1.79.08-.45.12-.71.12-.71h-2.87s0,.19,0,.53Z"/>
        <path class="cls-6" d="M63.5,35.83c-.41.19-.96.44-1.61.68-.66.23-1.42.47-2.12.4-.8-.05-1.61-.36-2.27-.94-.66-.57-1.13-1.39-1.29-2.25-.16-.85.02-1.71.38-2.35.72-1.31,1.76-1.79,1.71-1.82.04.05-1.04.3-2.09,1.57-.51.63-.92,1.58-.91,2.66,0,1.07.4,2.23,1.14,3.16.73.93,1.85,1.62,2.95,1.89,1.21.32,2.26.15,3.09.02.84-.15,1.5-.32,1.94-.44.42-.11.66-.17.66-.17l-.91-2.73s-.25.11-.67.3Z"/>
      </g>
      <path class="cls-7" d="M55.97,76.17c-2.08,6.81-1.5,14.12.26,20.92s4.61,13.11,8.1,19.07,7.75,11.58,11.51,17.44,7.5,12.53,9.55,19.53c1.03,3.5,1.66,7.12,1.78,10.77.1,2.77.27,5.53.4,8.29.05,1.04.09,2.07.13,3.11.02.64,1.02.64,1,0-.11-3.17-.35-6.34-.48-9.51-.06-1.53-.07-3.05-.23-4.58-.18-1.79-.47-3.58-.86-5.34-1.56-6.99-4.76-13.48-8.44-19.58s-7.99-11.92-11.85-17.96c-3.65-5.7-6.67-11.86-8.73-18.31s-3.3-14.06-1.84-21.06c.18-.85.4-1.7.65-2.53.19-.62-.78-.88-.96-.27h0Z"/>
      <path class="cls-7" d="M121.62,74.47c.8,6.38.99,12.79-.68,19.06-1.62,6.1-4.26,12-7.11,17.61s-6.02,11.01-9.36,16.3c-3.41,5.41-7.55,10.3-11.41,15.38-1.63,2.14-3.26,4.3-4.61,6.63-1.23,2.12-2.53,4.69-2.25,7.22.07.63,1.07.64,1,0-.25-2.28.89-4.56,1.98-6.48,1.16-2.05,2.56-3.95,3.97-5.83,3.77-5.03,7.85-9.84,11.33-15.09,1.75-2.64,3.35-5.39,4.96-8.11s3.11-5.39,4.55-8.15c2.88-5.51,5.39-11.22,7.31-17.15,1.12-3.45,1.75-7.03,1.92-10.65s-.14-7.19-.59-10.75c-.08-.63-1.08-.64-1,0h0Z"/>
    </g>
  </g>
</svg>