<?xml version="1.0" encoding="UTF-8"?>
<svg id="Layer_1" data-name="Layer 1" xmlns="http://www.w3.org/2000/svg" xmlns:xlink="http://www.w3.org/1999/xlink" viewBox="0 0 173.91 174">
  <defs>
    <style>
      .cls-1 {
        clip-path: url(#clippath);
      }

      .cls-2 {
        fill: none;
      }

      .cls-2, .cls-3, .cls-4, .cls-5, .cls-6, .cls-7 {
        stroke-width: 0px;
      }

      .cls-3 {
        fill: #474748;
      }

      .cls-3, .cls-4, .cls-5 {
        fill-rule: evenodd;
      }

      .cls-4 {
        fill: #f5be92;
      }

      .cls-5, .cls-7 {
        fill: #f0f0f0;
      }

      .cls-6 {
        fill: #8e8dc6;
      }
    </style>
    <clipPath id="clippath">
      <ellipse class="cls-2" cx="86.96" cy="87" rx="87" ry="86.96" transform="translate(-.27 173.73) rotate(-89.85)"/>
    </clipPath>
  </defs>
  <ellipse class="cls-6" cx="86.96" cy="87" rx="87" ry="86.96" transform="translate(-.27 173.73) rotate(-89.85)"/>
  <g class="cls-1">
    <g>
      <path class="cls-4" d="M51.89,65.95c2.41-.79,5.47,1.94,6.84,6.1,1.37,4.16.53,8.18-1.88,8.97-2.4.79-5.47-1.94-6.84-6.1-1.37-4.16-.53-8.18,1.88-8.97Z"/>
      <path class="cls-4" d="M122.25,65.95c-2.41-.79-5.47,1.94-6.84,6.1-1.37,4.16-.53,8.18,1.87,8.97,2.41.79,5.47-1.94,6.84-6.1,1.37-4.16.53-8.18-1.88-8.97Z"/>
      <path class="cls-5" d="M109.97,33.08c6.73,1.07,10.46,5.69,12.05,11.95,4.15,16.31-4.54,51.67-34.61,52.09-15.51.22-26.68-3.73-30.75-16.28-4.07-12.55-5.74-32.78,3.11-44.11,11.13-14.26,34.49-14.4,50.2-3.66Z"/>
      <path class="cls-3" d="M74.4,116.21c-28.14,12.34-36.59,18.91-39.92,21.87-5.14,4.55-8.16,22.11-11.2,36.51h127.35c-3.03-14.4-5.7-31.96-10.85-36.51-3.34-2.95-11.47-9.36-39.61-21.7l-25.77-.17Z"/>
      <path class="cls-4" d="M73.47,91.62v33.37c7.51,8.88,19.81,9.2,27.33,0v-33.37c0-16.84-27.33-16.84-27.33,0Z"/>
      <path class="cls-4" d="M87.13,35.61c-45.86,0-29.37,59.75-26.37,64.17,3.3,4.86,18.96,13.42,26.37,13.42s23.07-9.64,26.37-14.5c2.99-4.41,19.49-63.08-26.37-63.08Z"/>
      <g>
        <path class="cls-7" d="M116.06,59.85c-.02-.42-.05-.89-.13-1.4-.11-1.03-.38-2.21-.7-3.47-.34-1.25-.75-2.56-1.16-3.85-.41-1.29-.78-2.56-1.06-3.74-.26-1.18-.44-2.27-.49-3.19-.05-.46-.04-.88-.04-1.25-.01-.37,0-.69.03-.95.04-.52.06-.82.06-.82h-3.23l-.4-1.77s-.72.21-1.99.58c-.45.13-.98.29-1.54.47l.08-2.44s-.5.04-1.38.11c-.44.04-.97.08-1.57.13-.61.04-1.29.1-2.02.24-2.95.39-6.74,1.25-10.46,2.17-3.71.93-7.41,1.81-10.23,2.26-.7.14-1.35.22-1.93.28-.58.06-1.08.12-1.5.17-.83.09-1.31.15-1.31.15,0,0,.48.01,1.31.04.42.01.93.03,1.51.04.59.03,1.25.04,1.97,0,2.89-.05,6.73-.41,10.54-.81,3.74-.38,7.45-.68,10.21-.66-4.04,1.48-8.96,3.55-14,5.15-2.77.85-5.59,1.49-8.28,1.83-1.35.13-2.66.27-3.9.24-1.25.06-2.43-.05-3.52-.14-1.1-.04-2.08-.28-2.96-.4-.89-.12-1.64-.32-2.26-.48-1.25-.31-1.96-.49-1.96-.49,0,0,.69.24,1.91.67.61.22,1.35.49,2.23.69.88.2,1.85.54,2.96.68,1.1.18,2.29.41,3.57.47,1.28.15,2.63.12,4.04.12,2.8-.1,5.79-.49,8.72-1.11,5.85-1.28,11.47-3.12,15.69-4.18,1.05-.29,2.02-.5,2.88-.7.86-.21,1.6-.37,2.22-.48.27-.05.52-.1.74-.15.07.32.14.66.26,1.01.29,1.08.74,2.27,1.28,3.48.56,1.21,1.2,2.44,1.86,3.63,1.33,2.37,2.57,4.7,3.18,6.61.18.47.29.91.39,1.31.12.39.19.74.24,1.03.11.58.17.92.17.92,0,0,0-.34.01-.93.01-.3,0-.66-.03-1.08Z"/>
        <path class="cls-7" d="M112.54,34.21c-.19-.1-.37-.53-.09-.93.24-.42,1.07-.67,1.62-.72.58-.06,1.01-.02,1.01-.02,0,0-.29-.29-.85-.64-.28-.16-.63-.36-1.06-.48-.42-.13-.95-.23-1.56-.12-.6.09-1.2.37-1.67.79-.46.43-.78.97-.97,1.49-.18.48-.26.89-.3,1.14-.04.27-.06.42-.06.42l4.28-.54s-.16-.21-.34-.39Z"/>
        <path class="cls-7" d="M69.5,29.75c1.47-.06,2.84.01,4.02.17,1.17.15,2.14.33,2.81.49.67.16,1.05.25,1.05.25l.73-4.25s-.45-.03-1.23-.08c-.77-.06-1.9-.09-3.24-.04-1.34.04-2.91.21-4.55.55-1.64.37-3.36.91-4.96,1.71-1.59.82-3.04,1.87-4.23,3-1.16,1.17-2.09,2.37-2.73,3.49-.36.53-.58,1.08-.82,1.54-.24.46-.4.88-.53,1.22-.26.69-.42,1.08-.42,1.08,0,0,.21-.36.58-1,.18-.32.4-.7.71-1.11.3-.41.6-.89,1.03-1.35.78-.96,1.84-1.94,3.05-2.83,1.25-.85,2.68-1.56,4.18-2.05,1.51-.47,3.07-.69,4.54-.79Z"/>
        <path class="cls-7" d="M101.98,92.76c-.29-.13-.61-.33-.95-.53-.69-.41-1.46-.96-2.3-1.54-.84-.59-1.76-1.2-2.76-1.79-.5-.28-1-.6-1.54-.87-.27-.13-.54-.27-.82-.39-.29-.1-.59-.18-.89-.25-.29-.07-.61-.09-.92-.09-.31,0-.6-.03-.9.06-.3.05-.59.13-.86.2-.27.08-.52.23-.75.35-.46.21-.84.58-1.13.89-.14.16-.28.3-.37.43-.07.14-.13.27-.18.39-.09.2-.16.37-.2.5-.05-.13-.11-.3-.2-.5-.06-.12-.12-.25-.18-.39-.08-.13-.23-.28-.37-.43-.29-.31-.67-.68-1.13-.89-.23-.12-.48-.27-.75-.35-.27-.07-.56-.14-.86-.2-.3-.08-.59-.05-.9-.06-.31,0-.63.02-.92.09-.29.08-.59.15-.89.25-.28.11-.55.25-.82.39-.54.27-1.04.58-1.54.87-.99.59-1.91,1.19-2.76,1.79-.85.57-1.62,1.13-2.3,1.54-.34.21-.66.4-.95.53-.29.13-.54.29-.76.36-.44.17-.69.26-.69.26l.04.3s.28-.02.78-.04c.26,0,.54-.08.89-.14.35-.06.72-.17,1.13-.29.82-.23,1.75-.57,2.71-.96.96-.37,1.96-.82,2.94-1.17.49-.16.99-.32,1.47-.39.24-.04.47-.07.7-.13.22-.01.43-.05.64-.09.21-.07.39-.05.58-.1.18-.03.37-.1.54-.1.17,0,.34-.04.51-.06.17-.03.32,0,.48,0,.34-.03.6.02.88.04.14.02.29,0,.43.05.15.05.28.1.41.14.5.16.82.21.82.21l.1-.11.1.11s.32-.05.82-.21c.12-.04.26-.09.41-.14.14-.04.28-.03.43-.05.28-.03.54-.07.88-.04.16.01.31-.02.48,0,.17.02.34.06.51.06.16,0,.35.07.54.1.18.05.37.03.58.1.21.03.41.08.64.09.22.05.46.08.7.13.48.08.98.23,1.47.39.98.35,1.98.79,2.94,1.17.96.39,1.89.73,2.71.96.41.12.78.23,1.13.29.34.06.63.14.89.14.5.03.78.04.78.04l.04-.3s-.25-.1-.69-.26c-.22-.07-.47-.22-.76-.36Z"/>
      </g>
    </g>
  </g>
</svg>