<?xml version="1.0" encoding="UTF-8"?>
<svg id="Layer_1" data-name="Layer 1" xmlns="http://www.w3.org/2000/svg" xmlns:xlink="http://www.w3.org/1999/xlink" viewBox="0 0 173.91 174">
  <defs>
    <style>
      .cls-1 {
        clip-path: url(#clippath);
      }

      .cls-2, .cls-3, .cls-4 {
        fill: none;
      }

      .cls-2, .cls-5, .cls-6, .cls-7, .cls-8 {
        stroke-width: 0px;
      }

      .cls-9 {
        fill: #179e85;
        stroke: #179e85;
        stroke-linecap: round;
        stroke-linejoin: round;
        stroke-width: 1.12px;
      }

      .cls-9, .cls-5, .cls-6, .cls-7 {
        fill-rule: evenodd;
      }

      .cls-3 {
        stroke-width: .75px;
      }

      .cls-3, .cls-4 {
        stroke: #dea146;
        stroke-miterlimit: 10;
      }

      .cls-5 {
        fill: #dea146;
      }

      .cls-6 {
        fill: #ffdec4;
      }

      .cls-7 {
        fill: #92653d;
      }

      .cls-8 {
        fill: #fad37c;
      }
    </style>
    <clipPath id="clippath">
      <ellipse class="cls-2" cx="86.96" cy="87" rx="87" ry="86.96" transform="translate(-.32 173.68) rotate(-89.82)"/>
    </clipPath>
  </defs>
  <ellipse class="cls-8" cx="86.96" cy="87" rx="87" ry="86.96" transform="translate(-.32 173.68) rotate(-89.82)"/>
  <g class="cls-1">
    <g>
      <path class="cls-7" d="M123.65,140.35c6.91-78.84.6-111.81-34.36-110.85-45.55,1.24-45.29,40.41-33.09,109.45,20.28-2.08,52.58,1.12,67.45,1.4Z"/>
      <path class="cls-9" d="M100.05,121.63c-.26.42-26.25.83-26.54,1.24-8.16,11.64-25.8,16.74-39.82,19.88-13.95,3.12-14.49,20.85-14.51,32.65h136.03c-.02-11.8-.28-29.47-14.52-32.65-14.24-3.18-32.9-8.95-40.64-21.12Z"/>
      <path class="cls-6" d="M73.57,96.76v33.39c-4.73,8.93,8.56,37.26,13.71,37.2,4.78-.06,17.95-26.03,13.55-37.2v-33.39c0-18.03-27.26-18.03-27.26,0Z"/>
      <path class="cls-6" d="M123.28,81.55c-2.74-1.17-6.6,1.71-8.63,6.43-2.03,4.73-1.46,9.51,1.27,10.69,2.74,1.17,6.6-1.71,8.63-6.44,2.03-4.72,1.46-9.5-1.27-10.68Z"/>
      <path class="cls-6" d="M51.08,81.55c2.74-1.17,6.6,1.71,8.63,6.43,2.03,4.73,1.46,9.51-1.28,10.69-2.73,1.17-6.6-1.71-8.63-6.44-2.03-4.72-1.46-9.5,1.27-10.68Z"/>
      <path class="cls-7" d="M52.83,85.54c-6.91-37.86,15.48-49.87,34.36-49.87,21.27,0,43.26,16.31,33.09,51.12-20.28-1-38.82-13.01-56.74-36.76-3.05,12.07-5.11,27.75-10.71,35.51Z"/>
      <path class="cls-6" d="M87.2,119.86c-8.87,0-27.62-13.95-33.41-33.93-5.85-20.18,5.17-49.12,33.41-49.12s39.27,28.94,33.41,49.12c-5.79,19.98-24.54,33.93-33.41,33.93Z"/>
      <g>
        <path class="cls-7" d="M122.23,88.61c.19-.55.34-1.14.52-1.74.4-1.2.57-2.51.85-3.86.37-2.72.49-5.68.33-8.63-.38-5.87-1.62-11.58-2.52-15.72-.88-4.11-1.47-6.85-1.47-6.85l-2.88.88c.01-.44.07-.78.14-.93.02-.02.04-.05.05-.06-.04-.01-.09-.02-.16-.04,0,0,0,0-.01,0l-.29-.08-.07-.02h-.04s-.02-.02-.02-.02c-.4-.11.12.03.43.12.06.01.15.03.17.03,0,0-.01,0-.02,0,.04.01.07.02.04.01v.02s0,.05,0,.05c0,.03,0,.07-.01.08h.03s.04,0,.05,0c.13.04.15.1.16.1l-2.14-2.79c.07-.07.12-.12.12-.12l-.45-.32-2.53-3.3s-.34.17-.85.6c.66-1,1.15-2.11,1.37-3.04.13-.52.16-.99.2-1.29.03-.31.04-.47.04-.47l-6.51.5c.21-.61.33-.94.33-.94l-4.04-1.23c.02-.12.03-.24.04-.35,0-.53-.01-.81-.01-.81l-2.8.32-5.4-1.64-4.18-3.24s.08.04.14.2c.03.04-.03.1.12.08.03.03-.06.13-.3.27-.26.14-.62.31-1.23.58-.38.18-.77.34-1.11.56l-.26.16-.15.1-.3.21c-.13.09-.26.19-.39.28-.47.02-.95.03-1.43,0l-2.92-4.04s-.35.31-.95.86c-.31.28-.68.62-1.1,1-.43.39-.91.85-1.49,1.25-1.37,1.12-3.21,2.34-5.29,3.58l-3.58-1.54s0,0,.01.02c.03.12-.32.53-1.23,1.36-.87.87-1.73,1.94-2.44,3.05-.44.69-.87,1.37-1.32,2.04-2,1.31-3.78,2.69-5.08,4.09-.15.15-.27.31-.4.46l-2.66-3.17s-.18.18-.51.53c-.34.34-.81.86-1.32,1.55-1.04,1.37-2.22,3.42-3.08,5.9-.89,2.48-1.47,5.36-1.76,8.42-.15,1.53-.2,3.1-.18,4.69.02,1.57.12,3.27.42,4.9.21,1.3.54,2.58.95,3.81h-1.18s.03.36.08.98l-.12-.07s-.14.31-.39.85c-.13.27-.24.6-.36.99-.14.38-.25.82-.34,1.29-.42,1.9-.43,4.33-.46,6.67-.03,2.33-.25,4.64-.95,6.24-.08.2-.16.4-.24.57-.1.17-.19.33-.28.49-.17.31-.33.58-.5.77-.32.41-.5.64-.5.64,0,0,.22-.2.59-.56.2-.17.41-.41.63-.7.11-.14.24-.3.36-.46.12-.17.22-.36.34-.55.49-.77.88-1.77,1.22-2.85.32-1.09.55-2.28.76-3.45.23-1.37.45-2.71.72-3.89.07.29.14.58.22.89.37,1.5.95,3.21,1.68,4.99.75,1.77,1.72,3.59,2.83,5.3,1.15,1.69,2.46,3.27,3.84,4.58,1.42,1.27,2.83,2.36,4.18,3.06.33.18.64.37.95.52.32.14.62.27.9.39.28.12.54.24.78.34.25.09.48.15.69.22.83.26,1.31.41,1.31.41,0,0-.46-.19-1.27-.52-.2-.09-.42-.17-.66-.28-.23-.13-.48-.26-.74-.41-.26-.14-.55-.3-.84-.46-.29-.17-.58-.39-.88-.59-1.25-.8-2.51-1.98-3.76-3.32-1.21-1.38-2.32-2.99-3.26-4.69-.48-.91-.91-1.83-1.29-2.76.47.57.96,1.1,1.46,1.59.59.49,1.11,1,1.71,1.37.29.2.56.39.83.57.29.15.56.3.83.45.52.31,1.04.49,1.49.68.44.2.85.32,1.19.41.67.19,1.05.29,1.05.29,0,0-.37-.15-1-.41-.32-.12-.7-.29-1.12-.53-.42-.23-.9-.47-1.37-.82-.24-.17-.49-.34-.74-.52-.24-.2-.48-.42-.73-.63-.52-.41-.96-.97-1.46-1.48-.91-1.12-1.74-2.41-2.4-3.78-.63-1.39-1.12-2.83-1.44-4.22-.29-1.33-.49-2.57-.57-3.67.24.42.49.84.75,1.24,1.69,2.58,3.99,4.46,6.15,5.49,2.18,1.05,4.16,1.3,5.49,1.38.67.03,1.21-.02,1.56-.02.36-.01.55-.02.55-.02,0,0-.19-.03-.54-.08-.35-.06-.87-.1-1.52-.25-1.28-.3-3.09-.89-4.86-2.17-1.76-1.27-3.42-3.22-4.45-5.66-1.05-2.43-1.59-5.24-1.54-8.03.01-1.68.25-3.43.58-5.12.19.95.51,1.85.95,2.65,1.13,2.15,2.82,3.65,4.46,4.75,1.65,1.11,3.31,1.83,4.81,2.33,1.49.53,2.84.79,3.95.98,1.11.16,1.99.25,2.59.25.6.02.92.03.92.03,0,0-.32-.04-.91-.12-.59-.06-1.45-.25-2.52-.51-1.06-.3-2.35-.69-3.73-1.35-1.39-.62-2.89-1.49-4.3-2.67-1.4-1.17-2.73-2.68-3.45-4.51-.74-1.82-.75-3.93-.04-5.9.7-1.98,2.04-3.89,3.7-5.3,1.27-1.07,2.71-1.84,4.28-2.29-1.82,1.07-3.37,2.34-4.43,3.79-1.55,2.11-2.04,4.27-2.3,5.72-.14.73-.18,1.32-.24,1.71-.05.4-.07.61-.07.61,0,0,.04-.21.11-.6.08-.39.15-.97.32-1.69.34-1.43.94-3.53,2.54-5.46,1.58-1.94,4.15-3.5,7.1-4.57.02,0,.04-.01.07-.02,4.3-.51,8.71-.31,13.03-.24,1.22.01,2.42.02,3.59.03,1.19-.03,2.37-.05,3.52-.1,1.18-.1,2.25-.16,3.45-.3,1.29-.19,2.4-.47,3.45-.79.83-.25,1.6-.54,2.35-.83-.33.42-.68.84-1.04,1.25-1.23,1.37-2.76,2.43-4.05,3.06-.64.32-1.23.46-1.62.62-.4.14-.64.23-.64.23,0,0,.24-.01.67-.04.42-.04,1.06-.02,1.79-.15,1.47-.25,3.46-.91,5.23-2.01.45-.28.89-.58,1.31-.87-.54,1.07-1.04,2.08-1.47,2.95-.92,1.83-1.53,3.05-1.53,3.05,0,0,1.04-.89,2.59-2.21.78-.67,1.7-1.46,2.68-2.29.8-.68,1.57-1.45,2.36-2.22.02.15.04.3.06.46.08.7.26,1.59.47,2.51.22.91.48,1.87.79,2.81.62,1.89,1.54,3.66,2.36,4.86.39.61.77,1.08,1.03,1.41.26.33.41.51.41.51,0,0-.09-.22-.25-.61-.16-.38-.39-.93-.59-1.6-.29-.9-.54-2.02-.69-3.2.42.85.86,1.68,1.32,2.48,2.03,3.52,4.19,6.71,5.41,9.35.63,1.3,1.03,2.45,1.25,3.27.12.41.18.74.23.97.05.23.07.35.07.35,0,0,0-.12.02-.35.01-.23.05-.57.04-1.01,0-.87-.07-2.13-.33-3.63-.16-.96-.4-2.02-.68-3.13.08.18.15.35.23.53.55,1.28,1.14,2.81,1.68,4.49.24,3.1-.17,6.14-.72,8.48-.35,1.5-.7,2.74-.98,3.6-.27.86-.43,1.35-.43,1.35,0,0,.2-.48.54-1.31.35-.83.82-2.04,1.3-3.52.24-.74.5-1.55.69-2.42.24-.87.39-1.8.55-2.77.07.32.15.63.21.95.32,1.66.52,3.34.58,4.93.01,1.58-.05,3.08-.28,4.34-.08.64-.22,1.21-.35,1.71-.11.51-.23.95-.36,1.3-.24.72-.38,1.12-.38,1.12,0,0,.18-.39.49-1.08.17-.34.33-.77.5-1.27.18-.5.38-1.06.53-1.7.37-1.26.59-2.77.75-4.41.02-.25,0-.52.02-.78.03.39.07.79.1,1.18-.02,1.26.06,2.51-.09,3.66-.06.58-.09,1.16-.16,1.71-.1.54-.2,1.07-.3,1.58-.15,1.03-.47,1.93-.7,2.74-.12.41-.22.79-.35,1.14-.14.34-.27.65-.38.94-.47,1.14-.74,1.79-.74,1.79,0,0,.39-.59,1.07-1.62.17-.26.36-.55.57-.86.19-.32.37-.69.57-1.07.39-.77.9-1.64,1.26-2.65.2-.51.41-1.03.62-1.58ZM62.52,51.39s.03,0,.04,0c.1-.01.22-.02.33-.03-.09.05-.17.11-.26.16l-.11-.13Z"/>
        <path class="cls-7" d="M70.39,37.38l.1.04c-.04-.07-.11-.03-.1-.04Z"/>
        <path class="cls-7" d="M128.57,126.12c-.7-.01-1.45-.37-1.99-1.02-.56-.63-.96-1.5-1.26-2.4-.6-1.8-.82-3.75-.93-5.19-.1-1.45-.06-2.39-.06-2.39l-2.87.2s.15,1.06.54,2.57c.39,1.51.99,3.52,2.01,5.38.51.92,1.14,1.83,1.95,2.47.79.67,1.84.95,2.63.81,1.6-.3,2.28-1.15,2.3-1.09,0-.06-.89.65-2.32.64Z"/>
        <path class="cls-7" d="M50.76,101.11s.05.13.14.36c.08.24.2.6.29,1.07.2.93.31,2.24.11,3.52-.12.62-.3,1.24-.6,1.75-.32.48-.7.91-1.16,1.09-.9.42-1.67.29-1.66.33,0,0,.17.04.48.1.15.03.34.08.57.06.22-.01.49.02.76-.07.58-.08,1.18-.45,1.72-.95.53-.52.93-1.19,1.26-1.89.61-1.41.88-2.93.93-4.1.07-1.16-.08-2.03-.08-2.03l-2.77.76Z"/>
      </g>
      <path class="cls-4" d="M102.19,127.48c0,3.42-6.72,6.2-15,6.2s-15-2.77-15-6.2c0-.55.18-1.09.51-1.6,1.71-2.64,7.55-4.59,14.49-4.59s13.15,2.07,14.64,4.85c.23.43.36.88.36,1.35Z"/>
      <path class="cls-6" d="M73.57,121.17v5.67c9.39,2.62,17.92-1.64,27.26-.32v-8.4c-8.73-3.8-18.9-.27-27.26,3.04Z"/>
      <g>
        <path class="cls-5" d="M88.25,134.76c0,.58-.48,1.06-1.06,1.06s-1.06-.48-1.06-1.06.48-1.06,1.06-1.06,1.06.47,1.06,1.06Z"/>
        <path class="cls-5" d="M88.17,149.53c0,.3-.44.55-.98.55h0c-.54,0-.98-.25-.98-.55l.5-13.5c0-.26.21-.48.48-.48h0c.26,0,.48.21.48.48l.5,13.5Z"/>
        <path class="cls-6" d="M87.69,148.99c0,.19-.22.35-.5.35h0c-.28,0-.5-.16-.5-.35l.26-8.63c0-.17.11-.31.24-.31h0c.13,0,.24.14.24.31l.26,8.63Z"/>
      </g>
      <g>
        <path class="cls-4" d="M56.11,116.17c-1.74,0-3.14-3.41-3.14-7.61s1.41-7.61,3.14-7.61c.28,0,.55.09.81.26,1.34.87,2.33,3.83,2.33,7.35s-1.05,6.67-2.46,7.43c-.22.12-.45.18-.68.18Z"/>
        <line class="cls-3" x1="56.11" y1="100.9" x2="56.11" y2="95.48"/>
      </g>
      <g>
        <path class="cls-4" d="M117.61,116.17c-1.74,0-3.14-3.41-3.14-7.61s1.41-7.61,3.14-7.61c.28,0,.55.09.81.26,1.34.87,2.33,3.83,2.33,7.35s-1.05,6.67-2.46,7.43c-.22.12-.45.18-.68.18Z"/>
        <line class="cls-3" x1="117.61" y1="100.9" x2="117.61" y2="95.48"/>
      </g>
    </g>
  </g>
</svg>